<?xml version="1.0" encoding="UTF-8"?>
<svg width="242px" height="242px" viewBox="0 0 242 242" version="1.1" xmlns="http://www.w3.org/2000/svg" xmlns:xlink="http://www.w3.org/1999/xlink">
    <!-- Generator: Sketch 45.2 (43514) - http://www.bohemiancoding.com/sketch -->
    <title>Trello-logo-icon-grey</title>
    <desc>Created with Sketch.</desc>
    <defs></defs>
    <g id="Page-1" stroke="none" stroke-width="1" fill="none" fill-rule="evenodd">
        <g id="Trello-logo-icon-grey" fill-rule="nonzero" fill="#838C91">
            <g id="trello-logo-blue">
                <path d="M30.2516715,0.374789318 L211.748329,0.374789318 C228.44868,0.374789318 242,13.918924 242,30.6264608 L242,212.123118 C242,228.823469 228.455865,242.374789 211.748329,242.374789 L30.2516715,242.374789 C13.5513201,242.374789 0,228.830654 0,212.123118 L0,30.6264608 C0,13.9261094 13.5441346,0.374789318 30.2516715,0.374789318 Z M151.246414,31.8347893 C143.22922,31.8347893 136.73,38.3353027 136.73,46.3615022 L136.73,123.788076 C136.73,131.810958 143.231603,138.314789 151.246414,138.314789 L196.023586,138.314789 C204.04078,138.314789 210.54,131.814276 210.54,123.788076 L210.54,46.3615022 C210.54,38.3386201 204.038397,31.8347893 196.023586,31.8347893 L151.246414,31.8347893 Z M45.9764136,31.8347893 C37.9592198,31.8347893 31.46,38.3293547 31.46,46.3610635 L31.46,184.288515 C31.46,192.311154 37.961603,198.814789 45.9764136,198.814789 L90.7535864,198.814789 C98.7707802,198.814789 105.27,192.320224 105.27,184.288515 L105.27,46.3610635 C105.27,38.3384239 98.7683965,31.8347893 90.7535864,31.8347893 L45.9764136,31.8347893 Z" id="Board"></path>
            </g>
        </g>
    </g>
</svg>