<?xml version="1.0" encoding="UTF-8"?>
<svg width="1000px" height="287px" viewBox="0 0 1000 287" version="1.1" xmlns="http://www.w3.org/2000/svg" xmlns:xlink="http://www.w3.org/1999/xlink">
    <!-- Generator: Sketch 45.2 (43514) - http://www.bohemiancoding.com/sketch -->
    <title>Trello-logo-grey</title>
    <desc>Created with Sketch.</desc>
    <defs></defs>
    <g id="Page-1" stroke="none" stroke-width="1" fill="none" fill-rule="evenodd">
        <g id="Trello-logo-grey" fill-rule="nonzero" fill="#838C91">
            <g id="trello-logo-blue" transform="translate(0.312500, 0.000000)">
                <path d="M803.533011,215.335666 C788.052844,221.645303 775.837138,243.444152 757.258426,255.83386 C756.106384,256.60213 754.954342,256.986265 754.186314,256.986265 C752.650258,256.986265 750.730188,255.449725 750.730188,248.535297 C750.730188,224.718931 758.410468,213.194884 764.938706,196.292947 C787.595533,137.520303 826.380947,87.198628 860.942208,32.2673337 C863.630306,28.0418495 865.166362,23.4322304 865.166362,18.4384764 C865.166362,14.2129922 863.630306,10.7557779 861.710236,6.53029373 C860.17418,3.0730794 853.261928,0 845.581648,0 C841.357493,0 837.517353,0.384134925 832.525171,0.384134925 C814.476513,0.384134925 810.636373,26.8894448 806.412219,33.8038734 C777.611168,82.5890089 744.585964,142.898192 727.689348,185.537169 C723.984124,195.095755 719.981805,204.654342 716.939658,214.464462 C700.242386,219.30106 687.733531,242.785516 668.167177,255.83386 C667.015135,256.60213 665.863093,256.986265 665.095064,256.986265 C663.559008,256.986265 661.638938,255.449725 661.638938,248.535297 C661.638938,224.718931 669.319219,213.194884 675.847457,196.292947 C698.504283,137.520303 737.289698,87.198628 771.850958,32.2673337 C774.539056,28.0418495 776.075112,23.4322304 776.075112,18.4384764 C776.075112,14.2129922 774.539056,10.7557779 772.618986,6.53029373 C771.08293,3.0730794 764.170678,0 756.490398,0 C752.266244,0 748.426104,0.384134925 743.433922,0.384134925 C725.385264,0.384134925 721.545123,26.8894448 717.320969,33.8038734 C688.519919,82.5890089 655.494714,142.898192 638.598098,185.537169 C637.254822,189.002498 635.872498,192.467828 634.511034,195.945142 C634.090611,196.169774 633.661284,196.41337 633.221902,196.677082 C613.637188,208.201129 597.124585,228.560281 573.315717,242.389138 C568.707549,245.078082 554.499031,255.06559 542.97861,255.06559 C540.290512,255.06559 537.986428,254.297321 535.682344,253.144916 C532.226218,251.608376 528.770092,244.309812 528.770092,242.005003 C528.770092,240.084328 529.154106,239.700193 532.994246,237.395384 C566.787479,217.036233 594.436487,187.841978 618.245356,158.647724 C627.077678,147.891946 638.598098,126.764525 638.598098,111.399128 C638.598098,101.41162 635.141972,89.8875725 623.237538,85.6620883 C614.78923,82.5890089 605.188879,81.0524692 597.508599,81.0524692 C577.155857,81.0524692 562.179311,90.2717074 553.731003,99.1068107 C545.130158,108.291685 536.810737,117.722883 529.08151,127.485609 C521.005693,120.511238 509.614844,117.545287 498.817,117.545287 C486.144537,117.545287 462.335669,133.294819 450.047221,142.514057 C448.127151,144.050597 446.975109,144.818867 446.207081,144.818867 C445.823067,144.818867 445.439053,144.434732 445.439053,143.666462 C445.439053,143.282327 446.207081,139.825113 446.207081,133.678954 C446.207081,128.301065 445.055039,121.386636 440.062857,112.935668 C438.910815,111.014993 431.998563,106.789509 423.550254,106.789509 C413.181876,106.789509 403.581526,111.783263 403.581526,117.161152 C403.581526,121.002501 407.037652,122.539041 407.037652,125.996255 C407.037652,127.91693 405.501596,136.752033 403.197512,145.203002 C396.669274,169.787637 388.60498,193.988137 380.156672,218.188638 C375.548504,231.63336 360.187943,243.541543 360.187943,258.13867 C360.187943,262.748289 363.260055,268.894448 367.48421,273.504067 C374.396462,281.186765 378.620616,283.87571 384.76484,283.87571 C387.452938,283.87571 390.52505,283.10744 393.213148,280.80263 C398.973358,275.808876 402.04547,270.815122 403.581526,263.900694 C413.56589,218.572772 442.366941,187.841978 474.240103,167.482827 C484.992495,160.568399 499.585028,153.269835 501.505098,153.269835 C503.473944,153.269835 506.553164,154.178609 509.655932,155.064297 C500.746188,169.601352 493.527036,184.932091 488.832636,201.286701 C487.29658,206.66459 486.528552,211.658344 486.528552,217.036233 C486.528552,225.871336 488.448622,235.090574 491.520734,243.925678 C495.744888,256.217995 502.65714,266.973773 512.25749,271.967527 C529.922134,281.186765 542.594596,286.180519 554.115017,286.180519 C560.643255,286.180519 565.635437,285.028115 571.011633,281.955035 C596.251672,267.66999 611.726432,256.832599 622.900504,247.206643 C623.206892,256.966528 625.130172,262.37375 632.06986,269.662718 C638.982112,276.961281 649.734504,283.491575 663.943022,286.564654 C666.247107,286.948789 668.551191,287.332924 670.855275,287.332924 C687.111745,287.332924 702.756495,274.115604 714.820121,261.012951 C716.216859,263.872184 718.246579,266.601497 721.161109,269.662718 C728.073362,276.961281 738.825754,283.491575 753.034272,286.564654 C755.338356,286.948789 757.64244,287.332924 759.946524,287.332924 C778.98936,287.332924 797.192806,269.196396 809.78393,254.352788 C813.980352,263.035236 825.707157,271.619467 839.821437,278.497821 C843.661577,280.418495 848.269746,281.5709 852.4939,281.5709 C869.006502,281.5709 880.910936,268.126178 890.127272,258.13867 C913.936141,232.017495 926.992617,199.750161 936.976981,159.031859 C937.745009,155.95878 938.897051,154.806375 940.433107,154.806375 C944.273247,154.806375 949.265429,154.806375 954.641625,154.038105 C965.010004,152.501565 973.074298,149.044351 982.674648,147.507811 C988.434858,146.355407 987.66683,144.434732 993.043026,142.514057 C996.883166,140.977518 999.955278,139.440978 999.955278,135.599629 C999.955278,129.069335 988.050844,122.154906 970.002186,122.154906 C955.793667,122.154906 947.345359,123.307311 941.585149,123.307311 C932.752827,123.307311 930.448743,120.618367 924.688533,105.637104 C924.688533,105.637104 930.448743,120.618367 924.688533,105.637104 C923.536491,102.564025 922.384449,101.027485 918.928323,97.9544059 C910.864029,91.0399773 900.879664,88.7351677 892.81537,88.7351677 C873.61467,88.7351677 857.102068,108.326049 845.581648,124.843851 C842.893549,128.6852 839.053409,131.758279 836.365311,135.983764 C820.546534,159.7194 805.400925,186.485247 803.533011,215.335666 Z M312.570207,84.5096836 C322.170557,84.5096836 327.546753,83.7414137 328.698795,83.7414137 C329.850837,83.7414137 330.618865,84.1255486 330.618865,85.2779534 C330.618865,86.0462233 330.234851,87.198628 327.546753,92.9606519 C304.121898,143.282327 287.99331,194.372272 273.784792,250.840106 C273.400778,252.376646 272.248736,258.13867 272.248736,263.900694 C272.248736,269.278583 273.784792,275.040606 279.160988,278.113686 C289.529366,284.259845 297.977674,286.948789 303.737884,286.948789 C312.186193,286.948789 316.410347,281.5709 316.410347,272.735797 C316.410347,265.053098 316.794361,256.986265 317.946403,250.840106 C328.698795,194.372272 344.827383,150.196756 369.788294,104.100565 C381.692728,82.204874 383.228784,81.0524692 383.228784,79.1317946 C383.228784,78.3635248 382.84477,77.21112 382.076742,76.0587152 C397.437302,72.6015009 415.869974,70.2966913 432.766591,70.2966913 C434.686661,70.2966913 442.366941,72.9856358 443.518983,74.1380406 C446.207081,76.8269851 448.895179,79.5159295 453.503347,79.5159295 C457.343487,79.5159295 463.871725,76.8269851 466.175809,75.2904454 C471.552005,71.4490961 474.240103,67.2236119 474.240103,60.3091833 C474.240103,53.7788895 450.047221,37.6452227 433.150605,37.6452227 C412.413848,37.6452227 393.597162,40.3341672 375.932518,43.7913815 C368.252238,45.3279212 340.603229,49.5534054 320.634501,49.5534054 C301.4338,49.5534054 302.585842,46.8644609 294.521548,46.8644609 C289.91338,46.8644609 287.609296,49.1692704 285.689226,51.0899451 C283.769156,53.0106197 282.617114,60.6933182 282.617114,67.6077468 C282.617114,71.0649612 282.617114,73.7539057 284.537184,76.0587152 C290.297394,82.9731439 301.4338,84.5096836 312.570207,84.5096836 C312.570207,84.5096836 301.4338,84.5096836 312.570207,84.5096836 Z M597.124585,115.624613 C597.124585,119.081827 595.972543,121.386636 591.364375,128.6852 C586.756207,135.983764 588.676277,135.983764 582.916067,143.666462 C571.779661,158.647724 557.955157,173.628986 539.906498,190.146788 C534.914316,194.756407 534.146288,194.756407 533.37826,194.756407 C532.994246,194.756407 532.226218,194.372272 532.226218,193.604002 C532.226218,192.451598 532.610232,190.915058 536.450372,182.848224 C548.354807,157.879454 562.947339,141.361652 579.075927,125.227986 C587.908249,116.392882 593.284445,113.319803 595.204515,113.319803 C596.356557,113.319803 597.124585,113.703938 597.124585,115.624613 C597.124585,115.624613 597.124585,113.703938 597.124585,115.624613 Z M892.431356,125.612121 C892.81537,125.612121 893.199384,125.996255 893.583398,126.764525 C893.967412,127.91693 894.73544,129.069335 896.65551,130.605875 C898.191566,131.758279 898.191566,137.136168 898.191566,141.361652 C898.191566,178.62274 877.070796,209.353534 856.33404,240.468463 C851.725872,247.382892 849.037774,248.535297 846.73369,248.535297 C844.81362,248.535297 841.741507,243.541543 840.589465,240.468463 C839.053409,236.242979 838.669395,231.249225 838.669395,229.32855 C838.669395,199.366026 867.086432,154.806375 885.903118,130.22174 C888.97523,125.996255 891.279314,125.612121 892.431356,125.612121 C892.431356,125.612121 891.279314,125.612121 892.431356,125.612121 Z" id="Type"></path>
                <path d="M30.3058101,45.3747893 L212.127275,45.3747893 C228.857513,45.3747893 242.433085,58.9474351 242.433085,75.6901421 L242.433085,257.568859 C242.433085,274.304366 228.864711,287.884212 212.127275,287.884212 L30.3058101,287.884212 C13.5755716,287.884212 0,274.311566 0,257.568859 L0,75.6901421 C0,58.9546356 13.5683733,45.3747893 30.3058101,45.3747893 Z M151.517085,76.9010142 C143.485544,76.9010142 136.974693,83.4152115 136.974693,91.4583066 L136.974693,169.047868 C136.974693,177.087638 143.487932,183.60516 151.517085,183.60516 L196.374392,183.60516 C204.405933,183.60516 210.916784,177.090963 210.916784,169.047868 L210.916784,91.4583066 C210.916784,83.418536 204.403545,76.9010142 196.374392,76.9010142 L151.517085,76.9010142 Z M46.0586933,76.9010142 C38.0271518,76.9010142 31.516301,83.409251 31.516301,91.457867 L31.516301,229.675663 C31.516301,237.71519 38.0295393,244.232516 46.0586933,244.232516 L90.9159997,244.232516 C98.9475411,244.232516 105.458392,237.724279 105.458392,229.675663 L105.458392,91.457867 C105.458392,83.4183393 98.9451531,76.9010142 90.9159997,76.9010142 L46.0586933,76.9010142 Z" id="Board"></path>
            </g>
        </g>
    </g>
</svg>